<svg xmlns="http://www.w3.org/2000/svg" width="1920" height="1080" viewBox="0 0 1920 1080">
  <defs>
    <linearGradient id="bg" x1="0" y1="0" x2="1" y2="1">
      <stop offset="0" stop-color="#070b18"/>
      <stop offset="0.48" stop-color="#16182d"/>
      <stop offset="1" stop-color="#2b1737"/>
    </linearGradient>
    <radialGradient id="blue" cx="28%" cy="24%" r="48%">
      <stop offset="0" stop-color="#7dd3fc" stop-opacity="0.34"/>
      <stop offset="1" stop-color="#7dd3fc" stop-opacity="0"/>
    </radialGradient>
    <radialGradient id="pink" cx="76%" cy="18%" r="46%">
      <stop offset="0" stop-color="#f0abfc" stop-opacity="0.32"/>
      <stop offset="1" stop-color="#f0abfc" stop-opacity="0"/>
    </radialGradient>
    <filter id="glow" x="-50%" y="-50%" width="200%" height="200%">
      <feGaussianBlur stdDeviation="12" result="blur"/>
      <feMerge><feMergeNode in="blur"/><feMergeNode in="SourceGraphic"/></feMerge>
    </filter>
  </defs>
  <rect width="1920" height="1080" fill="url(#bg)"/>
  <rect width="1920" height="1080" fill="url(#blue)"/>
  <rect width="1920" height="1080" fill="url(#pink)"/>
  <g opacity="0.25" stroke="#7dd3fc" stroke-width="2">
    <path d="M80 0v1080"/><path d="M142 0v1080"/><path d="M204 0v1080"/><path d="M266 0v1080"/><path d="M328 0v1080"/><path d="M390 0v1080"/><path d="M452 0v1080"/><path d="M514 0v1080"/><path d="M576 0v1080"/><path d="M638 0v1080"/><path d="M700 0v1080"/><path d="M762 0v1080"/><path d="M824 0v1080"/><path d="M886 0v1080"/><path d="M948 0v1080"/><path d="M1010 0v1080"/><path d="M1072 0v1080"/><path d="M1134 0v1080"/><path d="M1196 0v1080"/><path d="M1258 0v1080"/><path d="M1320 0v1080"/><path d="M1382 0v1080"/><path d="M1444 0v1080"/><path d="M1506 0v1080"/><path d="M1568 0v1080"/><path d="M1630 0v1080"/><path d="M1692 0v1080"/><path d="M1754 0v1080"/><path d="M1816 0v1080"/><path d="M1878 0v1080"/><path d="M1940 0v1080"/>
    <path d="M0 88h1920"/><path d="M0 152h1920"/><path d="M0 216h1920"/><path d="M0 280h1920"/><path d="M0 344h1920"/><path d="M0 408h1920"/><path d="M0 472h1920"/><path d="M0 536h1920"/><path d="M0 600h1920"/><path d="M0 664h1920"/><path d="M0 728h1920"/><path d="M0 792h1920"/><path d="M0 856h1920"/><path d="M0 920h1920"/><path d="M0 984h1920"/>
  </g>
  <g opacity="0.32" stroke="#f3f0ff" stroke-width="2" stroke-linecap="round">
    <path d="M20 24c28 -22.400000000000002 39.199999999999996 22.400000000000002 56 0"/><path d="M201 127c38 -30.400000000000002 53.199999999999996 30.400000000000002 76 0"/><path d="M382 230c48 -38.400000000000006 67.19999999999999 38.400000000000006 96 0"/><path d="M563 333c58 -46.400000000000006 81.19999999999999 46.400000000000006 116 0"/><path d="M744 436c68 -54.400000000000006 95.19999999999999 54.400000000000006 136 0"/><path d="M925 539c28 -22.400000000000002 39.199999999999996 22.400000000000002 56 0"/><path d="M1106 642c38 -30.400000000000002 53.199999999999996 30.400000000000002 76 0"/><path d="M1287 745c48 -38.400000000000006 67.19999999999999 38.400000000000006 96 0"/><path d="M1468 848c58 -46.400000000000006 81.19999999999999 46.400000000000006 116 0"/><path d="M1649 951c68 -54.400000000000006 95.19999999999999 54.400000000000006 136 0"/><path d="M1830 54c28 -22.400000000000002 39.199999999999996 22.400000000000002 56 0"/><path d="M131 157c38 -30.400000000000002 53.199999999999996 30.400000000000002 76 0"/><path d="M312 260c48 -38.400000000000006 67.19999999999999 38.400000000000006 96 0"/><path d="M493 363c58 -46.400000000000006 81.19999999999999 46.400000000000006 116 0"/><path d="M674 466c68 -54.400000000000006 95.19999999999999 54.400000000000006 136 0"/><path d="M855 569c28 -22.400000000000002 39.199999999999996 22.400000000000002 56 0"/><path d="M1036 672c38 -30.400000000000002 53.199999999999996 30.400000000000002 76 0"/><path d="M1217 775c48 -38.400000000000006 67.19999999999999 38.400000000000006 96 0"/><path d="M1398 878c58 -46.400000000000006 81.19999999999999 46.400000000000006 116 0"/><path d="M1579 981c68 -54.400000000000006 95.19999999999999 54.400000000000006 136 0"/><path d="M1760 84c28 -22.400000000000002 39.199999999999996 22.400000000000002 56 0"/><path d="M61 187c38 -30.400000000000002 53.199999999999996 30.400000000000002 76 0"/><path d="M242 290c48 -38.400000000000006 67.19999999999999 38.400000000000006 96 0"/><path d="M423 393c58 -46.400000000000006 81.19999999999999 46.400000000000006 116 0"/><path d="M604 496c68 -54.400000000000006 95.19999999999999 54.400000000000006 136 0"/><path d="M785 599c28 -22.400000000000002 39.199999999999996 22.400000000000002 56 0"/><path d="M966 702c38 -30.400000000000002 53.199999999999996 30.400000000000002 76 0"/><path d="M1147 805c48 -38.400000000000006 67.19999999999999 38.400000000000006 96 0"/><path d="M1328 908c58 -46.400000000000006 81.19999999999999 46.400000000000006 116 0"/><path d="M1509 1011c68 -54.400000000000006 95.19999999999999 54.400000000000006 136 0"/><path d="M1690 114c28 -22.400000000000002 39.199999999999996 22.400000000000002 56 0"/><path d="M1871 217c38 -30.400000000000002 53.199999999999996 30.400000000000002 76 0"/><path d="M172 320c48 -38.400000000000006 67.19999999999999 38.400000000000006 96 0"/><path d="M353 423c58 -46.400000000000006 81.19999999999999 46.400000000000006 116 0"/><path d="M534 526c68 -54.400000000000006 95.19999999999999 54.400000000000006 136 0"/><path d="M715 629c28 -22.400000000000002 39.199999999999996 22.400000000000002 56 0"/><path d="M896 732c38 -30.400000000000002 53.199999999999996 30.400000000000002 76 0"/><path d="M1077 835c48 -38.400000000000006 67.19999999999999 38.400000000000006 96 0"/><path d="M1258 938c58 -46.400000000000006 81.19999999999999 46.400000000000006 116 0"/><path d="M1439 41c68 -54.400000000000006 95.19999999999999 54.400000000000006 136 0"/><path d="M1620 144c28 -22.400000000000002 39.199999999999996 22.400000000000002 56 0"/><path d="M1801 247c38 -30.400000000000002 53.199999999999996 30.400000000000002 76 0"/><path d="M102 350c48 -38.400000000000006 67.19999999999999 38.400000000000006 96 0"/><path d="M283 453c58 -46.400000000000006 81.19999999999999 46.400000000000006 116 0"/><path d="M464 556c68 -54.400000000000006 95.19999999999999 54.400000000000006 136 0"/><path d="M645 659c28 -22.400000000000002 39.199999999999996 22.400000000000002 56 0"/><path d="M826 762c38 -30.400000000000002 53.199999999999996 30.400000000000002 76 0"/><path d="M1007 865c48 -38.400000000000006 67.19999999999999 38.400000000000006 96 0"/><path d="M1188 968c58 -46.400000000000006 81.19999999999999 46.400000000000006 116 0"/><path d="M1369 71c68 -54.400000000000006 95.19999999999999 54.400000000000006 136 0"/><path d="M1550 174c28 -22.400000000000002 39.199999999999996 22.400000000000002 56 0"/><path d="M1731 277c38 -30.400000000000002 53.199999999999996 30.400000000000002 76 0"/><path d="M32 380c48 -38.400000000000006 67.19999999999999 38.400000000000006 96 0"/><path d="M213 483c58 -46.400000000000006 81.19999999999999 46.400000000000006 116 0"/><path d="M394 586c68 -54.400000000000006 95.19999999999999 54.400000000000006 136 0"/><path d="M575 689c28 -22.400000000000002 39.199999999999996 22.400000000000002 56 0"/><path d="M756 792c38 -30.400000000000002 53.199999999999996 30.400000000000002 76 0"/><path d="M937 895c48 -38.400000000000006 67.19999999999999 38.400000000000006 96 0"/><path d="M1118 998c58 -46.400000000000006 81.19999999999999 46.400000000000006 116 0"/><path d="M1299 101c68 -54.400000000000006 95.19999999999999 54.400000000000006 136 0"/><path d="M1480 204c28 -22.400000000000002 39.199999999999996 22.400000000000002 56 0"/><path d="M1661 307c38 -30.400000000000002 53.199999999999996 30.400000000000002 76 0"/><path d="M1842 410c48 -38.400000000000006 67.19999999999999 38.400000000000006 96 0"/><path d="M143 513c58 -46.400000000000006 81.19999999999999 46.400000000000006 116 0"/><path d="M324 616c68 -54.400000000000006 95.19999999999999 54.400000000000006 136 0"/><path d="M505 719c28 -22.400000000000002 39.199999999999996 22.400000000000002 56 0"/><path d="M686 822c38 -30.400000000000002 53.199999999999996 30.400000000000002 76 0"/><path d="M867 925c48 -38.400000000000006 67.19999999999999 38.400000000000006 96 0"/><path d="M1048 28c58 -46.400000000000006 81.19999999999999 46.400000000000006 116 0"/><path d="M1229 131c68 -54.400000000000006 95.19999999999999 54.400000000000006 136 0"/>
  </g>
  <g transform="translate(122 146)">
    <text x="0" y="146" fill="#f3f0ff" font-family="PingFang SC, Microsoft YaHei, sans-serif" font-size="150" font-weight="900">梦境客服中心</text>
  </g>
  <g transform="translate(1110 268)" filter="url(#glow)">
    <rect x="0" y="0" width="520" height="340" rx="34" fill="#141a31" stroke="#7dd3fc" stroke-opacity="0.56" stroke-width="5"/>
    <path d="M64 92h246M64 168h390M64 244h270" stroke="#f3f0ff" stroke-width="22" stroke-linecap="round" opacity="0.78"/>
    <path d="M402 72l24 48 48 24-48 24-24 48-24-48-48-24 48-24 24-48Z" fill="#f0abfc"/>
    <circle cx="116" cy="410" r="78" fill="none" stroke="#f7d488" stroke-width="18"/>
    <path d="M304 390c82-74 192-20 224 66" fill="none" stroke="#7dd3fc" stroke-width="18" stroke-linecap="round"/>
  </g>
</svg>